<?xml version="1.0" encoding="utf-8"?>
<!-- Generator: Adobe Illustrator 19.0.0, SVG Export Plug-In . SVG Version: 6.00 Build 0)  -->
<svg version="1.1" id="layer" xmlns="http://www.w3.org/2000/svg" xmlns:xlink="http://www.w3.org/1999/xlink" x="0px" y="0px"
	 viewBox="-153 -46 652 652" style="enable-background:new -153 -46 652 652;" xml:space="preserve">
<style type="text/css">
	.st0{fill:#F70099;}
	.st1{fill:#210B3D;}
</style>
<path class="st0" d="M240.6,324.6c-36.3,13.2-76.6-5.6-89.8-41.9c-1.9-5.1,0.8-10.7,5.9-12.6c5.1-1.9,10.7,0.8,12.6,5.9
	c9.5,26.1,38.5,39.6,64.6,30.1c26.1-9.5,39.6-38.5,30.1-64.6c-1.9-5.1,0.8-10.7,5.9-12.6c5.1-1.9,10.7,0.8,12.6,5.9
	C295.7,271.1,276.9,311.3,240.6,324.6"/>
<path class="st1" d="M-45.2,278.3c0-19.4-15.9-30.7-30.7-30.7c-16.5,0-29.9,12.6-29.9,30.7c0,17.9,13.4,31.3,29.9,31.3
	C-59.6,309.6-45.2,297.7-45.2,278.3 M-24.8,240.6v76c0,5.6-4.5,10.1-10.1,10.1S-45,322.2-45,316.6v-4.3
	c-6.4,10.9-20.2,16.5-33.2,16.5c-26.2,0-47.8-19.8-47.8-50.3c0-30.7,21.6-50.1,47.6-50.1c13.6,0,27,5.4,33.4,16.3v-4.1
	c0-5.6,4.5-10.1,10.1-10.1S-24.8,235-24.8,240.6 M138.6,271.7v44.9c0,5.6-4.5,10.1-10.1,10.1c0,0,0,0,0,0h-0.2
	c-5.6,0-10.1-4.5-10.1-10.1v-43.5c0-15.9-8.2-25.1-21.2-25.1c-13.8-0.2-22.9,9.7-24.1,23.9v44.7c0,5.6-4.5,10.1-10.1,10.1h-0.2
	c-5.6,0-10.1-4.5-10.1-10.1v-43.7c0-15.9-8.2-24.9-20.2-24.9c-12.6,0-25.3,7.6-25.3,27.2v41.4c0,5.6-4.5,10.1-10.1,10.1
	s-10.1-4.5-10.1-10.1v-76c0-5.6,4.5-10.1,10.1-10.1c5.6,0,10.1,4.5,10.1,10.1v5.2c4.3-10.7,16.9-17.3,30.1-17.3
	c13.8,0,25.8,7,31.3,19.4c8.7-16.3,23.7-19.4,33.2-19.4C125.6,228.4,138.6,244.3,138.6,271.7 M307.2,297.5h0.9
	c3.5,0,6.6,2.2,8.1,5.3c2.4,5.1,8.3,8.9,16.5,8.9c11.1,0,17.9-5.2,17.9-12.4c0-6.4-5.1-9.7-12.4-11.3l-13-3.1
	c-17.9-4.7-26.2-14-26.2-28.2c0-15.7,14.2-28.2,34.2-28.2c11.9,0,24.4,4.5,30.5,14.5c3.8,6.3-1,14.3-8.3,14.3h-0.9
	c-3.3,0-6.1-1.9-7.7-4.8c-2.4-4.3-7.8-7-13.2-7c-8.4,0-14.2,5.2-14.2,11.8c0,6,5.6,9.3,11.5,10.7l14.6,3.5
	c20.6,5.2,25.1,17.9,25.1,28.2c0,18.3-18.1,29.1-37.9,29.1c-13.7,0-27.6-6.6-33.6-18.6C296.4,304.3,300.7,297.5,307.2,297.5
	 M453.8,270.5c-1.9-15-13-23.3-27.8-23.3c-14.8,0-26,7.4-28.9,23.3L453.8,270.5L453.8,270.5z M465.3,286.8h-68.3
	c2.7,15.7,14.2,23.3,29.9,23.3c8.8,0,17.2-3,23-8.6c2.8-2.7,7-3.5,10.5-1.7c5.5,2.8,6.8,10.1,2.5,14.5c-9.3,9.6-22.9,14.6-37,14.6
	c-27.8,0-49.7-20-49.7-50.5s22.3-49.9,49.7-49.9c27.4,0,48.2,19.4,48.2,49.7v0.1C474,282.9,470,286.8,465.3,286.8L465.3,286.8z"/>
</svg>
